<?xml version="1.0" standalone="no"?>
<!DOCTYPE svg PUBLIC "-//W3C//DTD SVG 20010904//EN"
 "http://www.w3.org/TR/2001/REC-SVG-20010904/DTD/svg10.dtd">
<svg version="1.0" xmlns="http://www.w3.org/2000/svg"
 width="700.000000pt" height="700.000000pt" viewBox="0 0 700.000000 700.000000"
 preserveAspectRatio="xMidYMid meet">
<metadata>
Created by potrace 1.11, written by Peter Selinger 2001-2013
</metadata>
<g transform="translate(0.000000,700.000000) scale(0.100000,-0.100000)"
fill="#000000" stroke="none">
<path d="M696 6984 c-323 -70 -578 -313 -672 -644 -18 -63 -19 -167 -21 -2815
-2 -2932 -4 -2795 42 -2932 102 -301 381 -534 695 -583 56 -8 778 -10 2810 -8
l2735 3 85 29 c332 112 553 357 615 681 23 117 22 5475 -1 5579 -39 186 -122
335 -255 462 -117 110 -239 179 -392 218 l-92 24 -2740 0 c-2372 0 -2749 -2
-2809 -14z"/>
</g>
</svg>
