<?xml version="1.0" encoding="iso-8859-1"?>
<!-- Generator: Adobe Illustrator 19.0.0, SVG Export Plug-In . SVG Version: 6.00 Build 0)  -->
<svg xmlns="http://www.w3.org/2000/svg" xmlns:xlink="http://www.w3.org/1999/xlink" version="1.1" id="Layer_1" x="0px" y="0px" viewBox="0 0 512 512" style="enable-background:new 0 0 512 512;" xml:space="preserve">
<rect x="214.05" y="273.15" style="fill:#CACACD;" width="30" height="223.85"/>
<polygon style="fill:#EBEBEC;" points="19.723,73.4 229.046,295.001 438.37,73.4 "/>
<polygon style="fill:#CACACD;" points="229.051,73.4 229.046,295.001 438.37,73.4 "/>
<rect x="153.47" y="482" style="fill:#EBEBEC;" width="150.86" height="30"/>
<polygon style="fill:#FD5219;" points="229.046,295.001 360.368,155.977 97.725,155.977 "/>
<polygon style="fill:#BB3E13;" points="229.046,295.001 360.368,155.977 229.051,155.977 "/>
<path style="fill:#FF7F4B;" d="M490.033,63.035c-6.264-19.278-24.149-31.522-43.379-31.52C440.715,13.226,423.543,0,403.273,0  s-37.442,13.226-43.381,31.516c-19.23-0.003-37.115,12.242-43.379,31.52s1.009,39.696,16.567,50.997  c-5.945,18.288,0.173,39.081,16.572,50.995c16.399,11.914,38.065,11.308,53.621,0.002c15.556,11.305,37.222,11.912,53.621-0.002  c16.398-11.914,22.517-32.708,16.572-50.995C489.024,102.731,496.297,82.313,490.033,63.035z"/>
<path style="fill:#FD5219;" d="M490.033,63.035c-6.264-19.278-24.149-31.522-43.379-31.52C440.715,13.226,423.543,0,403.273,0  c0,26.594,0,133.156,0,165.03c15.556,11.305,37.222,11.912,53.621-0.002c16.398-11.914,22.517-32.708,16.572-50.995  C489.024,102.731,496.297,82.313,490.033,63.035z"/>
<circle style="fill:#FFFFFF;" cx="403.27" cy="88.985" r="22.559"/>
<path style="fill:#EBEBEC;" d="M425.832,88.985c0,12.459-10.1,22.559-22.559,22.559c0-17.418,0-24.676,0-45.119  C415.732,66.426,425.832,76.526,425.832,88.985z"/>
<g>
</g>
<g>
</g>
<g>
</g>
<g>
</g>
<g>
</g>
<g>
</g>
<g>
</g>
<g>
</g>
<g>
</g>
<g>
</g>
<g>
</g>
<g>
</g>
<g>
</g>
<g>
</g>
<g>
</g>
</svg>
