<?xml version="1.0" encoding="iso-8859-1"?>
<!-- Generator: Adobe Illustrator 19.0.0, SVG Export Plug-In . SVG Version: 6.00 Build 0)  -->
<svg xmlns="http://www.w3.org/2000/svg" xmlns:xlink="http://www.w3.org/1999/xlink" version="1.1" id="Layer_1" x="0px" y="0px" viewBox="0 0 512 512" style="enable-background:new 0 0 512 512;" xml:space="preserve">
<polygon style="fill:#64DDE0;" points="330.801,237.225 301.59,230.389 344.556,46.796 460.388,86.648 450.628,115.016   366.198,85.968 "/>
<polygon style="fill:#EBEBEC;" points="185.341,230.098 129.683,46.361 158.395,37.664 216.688,230.098 "/>
<path style="fill:#FF7F4B;" d="M261.93,53.35L131.312,0l-79.7,116.427c0,0,61.606,5.634,111.793-9.418  C213.593,91.958,261.93,53.35,261.93,53.35z"/>
<path style="fill:#FD5219;" d="M261.93,53.35L131.312,0l32.093,107.009C213.593,91.958,261.93,53.35,261.93,53.35z"/>
<path style="fill:#BA7400;" d="M245.921,512c-97.73,0-177.24-79.51-177.24-177.24c0-40.509,13.313-78.648,38.501-110.294  l4.504-5.659h268.471l4.504,5.659c25.188,31.644,38.501,69.783,38.501,110.294C423.161,432.49,343.651,512,245.921,512z"/>
<path style="fill:#804D00;" d="M245.921,512c0-106,0-293.193,0-293.193h134.236l4.504,5.659  c25.188,31.644,38.501,69.783,38.501,110.294C423.161,432.49,343.651,512,245.921,512z"/>
<path style="fill:#EBEBEC;" d="M168.201,422.476c-25.116-22.275-39.521-54.247-39.521-87.716c0-16.411,3.282-32.216,9.755-46.977  l27.475,12.049c-4.797,10.939-7.23,22.691-7.23,34.928c0,24.896,10.726,48.686,29.427,65.272L168.201,422.476z"/>
<g>
</g>
<g>
</g>
<g>
</g>
<g>
</g>
<g>
</g>
<g>
</g>
<g>
</g>
<g>
</g>
<g>
</g>
<g>
</g>
<g>
</g>
<g>
</g>
<g>
</g>
<g>
</g>
<g>
</g>
</svg>
