<?xml version="1.0" encoding="iso-8859-1"?>
<!-- Generator: Adobe Illustrator 19.0.0, SVG Export Plug-In . SVG Version: 6.00 Build 0)  -->
<svg xmlns="http://www.w3.org/2000/svg" xmlns:xlink="http://www.w3.org/1999/xlink" version="1.1" id="Layer_1" x="0px" y="0px" viewBox="0 0 511.999 511.999" style="enable-background:new 0 0 511.999 511.999;" xml:space="preserve">
<path style="fill:#FBDA35;" d="M105.823,283.709c-16.811,0-33.619-5.211-47.966-15.635c-25.842-18.775-38.072-50.378-32.237-81.108  C2.838,165.535-5.844,132.779,4.027,102.4c9.871-30.377,36.151-51.775,67.176-55.723c13.341-28.29,41.812-46.669,73.754-46.669  s60.413,18.379,73.754,46.669c31.028,3.946,57.306,25.344,67.175,55.723c9.871,30.378,1.19,63.135-21.592,84.566  c5.834,30.729-6.396,62.333-32.238,81.108c-25.841,18.776-59.679,20.642-87.1,5.596C132.76,280.362,119.291,283.708,105.823,283.709  z"/>
<path style="fill:#F7BA35;" d="M144.958,0.008c31.942,0,60.413,18.379,73.754,46.669c31.028,3.946,57.306,25.344,67.175,55.723  c9.871,30.378,1.19,63.135-21.592,84.566c5.834,30.729-6.396,62.333-32.238,81.108c-25.841,18.776-59.679,20.642-87.1,5.596  C144.958,228.344,144.958,53.511,144.958,0.008z"/>
<polygon style="fill:#FF7F4B;" points="209.805,126.831 181.169,126.831 201.418,106.583 180.206,85.37 159.957,105.619   159.957,76.983 129.958,76.983 129.958,105.62 109.709,85.37 88.497,106.583 108.746,126.831 80.109,126.831 80.109,156.83   108.746,156.83 88.497,177.079 109.709,198.291 129.958,178.042 129.958,206.679 159.957,206.679 159.957,178.043 180.206,198.291   201.418,177.079 181.169,156.83 209.805,156.83 "/>
<polygon style="fill:#FD5219;" points="209.805,126.831 181.169,126.831 201.418,106.583 180.206,85.37 159.957,105.619   159.957,76.983 144.957,76.983 144.957,206.679 159.957,206.679 159.957,178.043 180.206,198.291 201.418,177.079 181.169,156.83   209.805,156.83 "/>
<path style="fill:#FF7F4B;" d="M327.909,511.99c-16.811,0-33.619-5.211-47.966-15.635c-25.842-18.775-38.072-50.378-32.237-81.108  c-22.782-21.43-31.464-54.187-21.593-84.566c9.871-30.377,36.151-51.775,67.176-55.723c13.341-28.29,41.812-46.669,73.754-46.669  s60.413,18.379,73.754,46.669c31.028,3.946,57.306,25.344,67.175,55.723c9.871,30.378,1.19,63.135-21.592,84.566  c5.834,30.729-6.396,62.333-32.238,81.108c-25.841,18.776-59.679,20.642-87.1,5.596C354.845,508.643,341.376,511.989,327.909,511.99  z"/>
<path style="fill:#FD5219;" d="M367.043,228.289c31.942,0,60.413,18.379,73.754,46.669c31.028,3.946,57.306,25.344,67.175,55.723  c9.871,30.378,1.19,63.135-21.592,84.566c5.834,30.729-6.396,62.333-32.238,81.108c-25.841,18.776-59.679,20.642-87.1,5.596  C367.043,456.625,367.043,281.792,367.043,228.289z"/>
<polygon style="fill:#FBDA35;" points="431.891,355.113 403.254,355.113 423.503,334.864 402.291,313.652 382.043,333.9   382.043,305.265 352.044,305.265 352.044,333.901 331.794,313.652 310.582,334.864 330.831,355.113 302.195,355.113   302.195,385.112 330.831,385.112 310.582,405.361 331.794,426.573 352.044,406.324 352.044,434.96 382.043,434.96 382.043,406.325   402.291,426.573 423.503,405.361 403.254,385.112 431.891,385.112 "/>
<polygon style="fill:#F7BA35;" points="431.891,355.113 403.254,355.113 423.503,334.864 402.291,313.652 382.043,333.9   382.043,305.265 367.043,305.265 367.043,434.96 382.043,434.96 382.043,406.325 402.291,426.573 423.503,405.361 403.254,385.112   431.891,385.112 "/>
<g>
</g>
<g>
</g>
<g>
</g>
<g>
</g>
<g>
</g>
<g>
</g>
<g>
</g>
<g>
</g>
<g>
</g>
<g>
</g>
<g>
</g>
<g>
</g>
<g>
</g>
<g>
</g>
<g>
</g>
</svg>
