<?xml version="1.0" encoding="iso-8859-1"?>
<!-- Generator: Adobe Illustrator 19.0.0, SVG Export Plug-In . SVG Version: 6.00 Build 0)  -->
<svg xmlns="http://www.w3.org/2000/svg" xmlns:xlink="http://www.w3.org/1999/xlink" version="1.1" id="Layer_1" x="0px" y="0px" viewBox="0 0 512 512" style="enable-background:new 0 0 512 512;" xml:space="preserve">
<polygon style="fill:#BA7400;" points="290.708,176.357 221.293,176.357 209.344,512 302.656,512 "/>
<polygon style="fill:#804D00;" points="290.708,176.357 256,176.357 256,512 302.656,512 "/>
<polygon style="fill:#4C3011;" points="295.471,310.152 256.632,310.152 256.632,272.862 294.143,272.862 "/>
<polygon style="fill:#804D00;" points="256,445.084 211.727,445.084 213.053,407.795 256,407.795 "/>
<path style="fill:#C3EA21;" d="M407.586,181.388l52.087,3.768L454,160.549c-5.09-22.077-17.35-42.458-34.521-57.389  c-13.84-12.033-30.151-20.175-47.807-24.003l58.233-43.379l-20.378-14.913c-18.283-13.381-40.884-20.79-63.64-20.864  c-23.602-0.063-46.012,7.34-64.946,21.443C271.092,28.78,262.72,37.56,256,47.465c-6.72-9.905-15.092-18.684-24.941-26.021v0.001  C212.221,7.411,189.898,0,166.473,0c-0.119,0-0.24,0-0.359,0.001c-22.756,0.073-45.357,7.483-63.64,20.864L82.095,35.777  l58.233,43.379c-17.656,3.829-33.968,11.97-47.807,24.003C75.35,118.091,63.09,138.472,58,160.549l-5.674,24.607l52.087-3.768  c-8.244,10.89-14.365,23.282-18.032,36.759c-5.973,21.957-4.835,45.714,3.207,66.895l8.964,23.608L256,186.036l157.448,122.613  l8.964-23.608c8.042-21.181,9.18-44.937,3.207-66.895C421.952,204.67,415.831,192.278,407.586,181.388z"/>
<path style="fill:#8ADB53;" d="M407.586,181.388l52.087,3.768L454,160.549c-5.09-22.077-17.35-42.458-34.521-57.389  c-13.84-12.033-30.151-20.175-47.807-24.003l58.233-43.379l-20.378-14.913c-18.283-13.381-40.884-20.79-63.64-20.864  c-23.602-0.063-46.012,7.34-64.946,21.443C271.092,28.78,262.72,37.56,256,47.465c0,22.915,0,138.572,0,138.572L413.448,308.65  l8.964-23.608c8.042-21.181,9.18-44.937,3.207-66.895C421.952,204.67,415.831,192.278,407.586,181.388z"/>
<g>
</g>
<g>
</g>
<g>
</g>
<g>
</g>
<g>
</g>
<g>
</g>
<g>
</g>
<g>
</g>
<g>
</g>
<g>
</g>
<g>
</g>
<g>
</g>
<g>
</g>
<g>
</g>
<g>
</g>
</svg>
