<?xml version="1.0" encoding="iso-8859-1"?>
<!-- Generator: Adobe Illustrator 19.0.0, SVG Export Plug-In . SVG Version: 6.00 Build 0)  -->
<svg xmlns="http://www.w3.org/2000/svg" xmlns:xlink="http://www.w3.org/1999/xlink" version="1.1" id="Layer_1" x="0px" y="0px" viewBox="0 0 512 512" style="enable-background:new 0 0 512 512;" xml:space="preserve">
<g>
	<path style="fill:#FD9702;" d="M267,127.574h-30c0-17.799,2.365-27.226,4.451-35.543c1.904-7.593,3.549-14.15,3.549-28.244   s-1.645-20.651-3.549-28.244C239.365,27.226,237,17.799,237,0h30c0,14.094,1.645,20.651,3.549,28.244   C272.636,36.561,275,45.988,275,63.787s-2.364,27.226-4.451,35.543C268.645,106.923,267,113.48,267,127.574z"/>
	<path style="fill:#FD9702;" d="M175.333,154.28c-8.9-15.415-11.565-24.761-13.917-33.006c-2.147-7.528-4.001-14.029-11.048-26.235   s-11.75-17.063-17.196-22.686c-5.965-6.16-12.726-13.141-21.625-28.556l25.98-15c7.047,12.206,11.75,17.063,17.196,22.686   c5.965,6.16,12.726,13.141,21.625,28.556c8.9,15.415,11.565,24.761,13.917,33.006c2.147,7.528,4.001,14.029,11.048,26.235   L175.333,154.28z"/>
	<path style="fill:#FD9702;" d="M135.28,208.241c-15.415-8.899-22.396-15.661-28.556-21.625   c-5.623-5.445-10.479-10.148-22.686-17.196c-12.206-7.047-18.707-8.901-26.235-11.048c-8.246-2.352-17.592-5.018-33.006-13.917   l15-25.98c12.206,7.047,18.707,8.901,26.235,11.048c8.246,2.352,17.592,5.018,33.006,13.917   c15.415,8.899,22.396,15.661,28.556,21.625c5.623,5.445,10.479,10.148,22.686,17.196L135.28,208.241z"/>
	<path style="fill:#FD9702;" d="M127.574,275c-17.799,0-27.226-2.365-35.543-4.451C84.438,268.645,77.881,267,63.787,267   s-20.651,1.645-28.244,3.549C27.226,272.635,17.799,275,0,275v-30c14.094,0,20.651-1.645,28.244-3.549   C36.561,239.365,45.988,237,63.787,237s27.226,2.365,35.543,4.451c7.593,1.904,14.15,3.549,28.244,3.549   C127.574,245,127.574,275,127.574,275z"/>
	<path style="fill:#FD9702;" d="M43.797,400.454l-15-25.98c12.206-7.047,17.063-11.75,22.686-17.196   c6.16-5.965,13.141-12.726,28.556-21.625c15.415-8.9,24.761-11.565,33.006-13.917c7.528-2.147,14.029-4.001,26.235-11.048l15,25.98   c-15.415,8.9-24.761,11.565-33.006,13.917c-7.528,2.147-14.029,4.001-26.235,11.048s-17.063,11.75-22.686,17.196   C66.193,384.793,59.212,391.555,43.797,400.454z"/>
	<path style="fill:#FD9702;" d="M144.454,487.203l-25.98-15c7.047-12.206,8.901-18.707,11.048-26.235   c2.352-8.246,5.018-17.592,13.917-33.006c8.899-15.415,15.661-22.396,21.625-28.556c5.445-5.623,10.148-10.479,17.196-22.686   l25.98,15c-8.899,15.415-15.661,22.396-21.625,28.556c-5.445,5.623-10.148,10.479-17.196,22.686   c-7.047,12.206-8.901,18.707-11.048,26.235C156.02,462.442,153.354,471.788,144.454,487.203z"/>
	<path style="fill:#FD9702;" d="M275,512h-30c0-14.094-1.645-20.651-3.549-28.244c-2.086-8.317-4.451-17.744-4.451-35.543   s2.365-27.226,4.451-35.543c1.904-7.593,3.549-14.15,3.549-28.244h30c0,17.799-2.364,27.226-4.451,35.543   c-1.904,7.593-3.549,14.15-3.549,28.244s1.645,20.651,3.549,28.244C272.636,484.774,275,494.201,275,512z"/>
	<path style="fill:#FD9702;" d="M374.474,483.203c-7.047-12.206-11.75-17.063-17.195-22.686   c-5.966-6.16-12.727-13.141-21.626-28.556c-8.9-15.415-11.565-24.761-13.917-33.006c-2.147-7.528-4.002-14.029-11.049-26.235   l25.98-15c8.9,15.415,11.565,24.761,13.917,33.006c2.147,7.528,4.002,14.029,11.049,26.235s11.75,17.063,17.195,22.686   c5.966,6.16,12.727,13.141,21.626,28.556L374.474,483.203z"/>
	<path style="fill:#FD9702;" d="M472.202,393.526c-12.206-7.047-18.707-8.901-26.234-11.048   c-8.246-2.352-17.592-5.018-33.007-13.917c-15.414-8.899-22.396-15.66-28.555-21.625c-5.623-5.446-10.479-10.149-22.687-17.196   l15-25.98c15.415,8.899,22.396,15.661,28.557,21.626c5.623,5.445,10.479,10.148,22.685,17.195s18.707,8.901,26.235,11.048   c8.245,2.352,17.592,5.018,33.006,13.917L472.202,393.526z"/>
	<path style="fill:#FD9702;" d="M448.213,275c-17.799,0-27.226-2.365-35.543-4.451c-7.593-1.904-14.15-3.549-28.244-3.549v-30   c17.8,0,27.226,2.365,35.543,4.451c7.593,1.904,14.15,3.549,28.244,3.549s20.651-1.645,28.244-3.549   C484.774,239.365,494.2,237,512,237v30c-14.094,0-20.651,1.645-28.244,3.549C475.438,272.635,466.012,275,448.213,275z"/>
	<path style="fill:#FD9702;" d="M372.72,201.313l-15-25.98c15.415-8.9,24.761-11.565,33.007-13.917   c7.527-2.147,14.028-4.001,26.234-11.048c12.207-7.047,17.063-11.75,22.687-17.196c6.159-5.965,13.141-12.726,28.555-21.625   l15,25.98c-12.205,7.047-17.062,11.75-22.685,17.195c-6.16,5.965-13.142,12.727-28.557,21.626   c-15.414,8.9-24.761,11.565-33.006,13.917C391.427,192.412,384.926,194.267,372.72,201.313z"/>
	<path style="fill:#FD9702;" d="M329.739,150.28l-25.98-15c8.899-15.415,15.66-22.396,21.626-28.556   c5.445-5.623,10.148-10.479,17.195-22.686s8.901-18.707,11.049-26.235c2.352-8.246,5.017-17.592,13.917-33.006l25.98,15   c-7.047,12.206-8.901,18.707-11.049,26.235c-2.352,8.246-5.017,17.592-13.917,33.006c-8.899,15.415-15.66,22.396-21.626,28.556   C341.489,133.217,336.786,138.074,329.739,150.28z"/>
</g>
<path style="fill:#FBDA35;" d="M256,399.426c-79.085,0-143.426-64.34-143.426-143.426S176.915,112.574,256,112.574  S399.426,176.914,399.426,256S335.085,399.426,256,399.426z"/>
<path style="fill:#F7BA35;" d="M256,399.426c0-88.739,0-236.068,0-286.852c79.085,0,143.426,64.34,143.426,143.426  S335.085,399.426,256,399.426z"/>
<g>
</g>
<g>
</g>
<g>
</g>
<g>
</g>
<g>
</g>
<g>
</g>
<g>
</g>
<g>
</g>
<g>
</g>
<g>
</g>
<g>
</g>
<g>
</g>
<g>
</g>
<g>
</g>
<g>
</g>
</svg>
